# xmcd CD Database Entry
#
# Track frame offsets:
# 150
# 17368
# 34659
# 62958
#
# Disc length: 982 seconds
#
# Revision: 1
# Processed by: cddbd v1.4PL0 Copyright (c) Steve Scherf et al.
# Submitted via: tcd 2.0b
#
DISCID=2803d404
DTITLE=Ligature - Unreleased Material
DYEAR=1900
DGENRE=
TTITLE0=Cut To Pieces
TTITLE1=Battered
TTITLE2=Dead In The Blink Of An Eye
TTITLE3=Beaten To A Pulp
EXTD=
EXTT0=
EXTT1=
EXTT2=
EXTT3=
PLAYORDER=
